<?xml version="1.0" encoding="UTF-8"?><svg id="_이어_2" xmlns="http://www.w3.org/2000/svg" viewBox="0 0 411.69 73.63"><defs><style>.cls-1{fill:#fff;}</style></defs><g id="Layer_1"><g><path class="cls-1" d="M411.52,13.33h-46.62v7.4h46.62c.11,0,.17-.05,.17-.16v-7.08c0-.08-.06-.14-.17-.16Z"/><path class="cls-1" d="M134.43,49.3h-25.58c-.06,0-.1,.04-.11,.11v24.1c0,.08,.04,.11,.11,.11h26.44c.18,0,.27-.04,.27-.11,.68,0,1.77-.36,3.26-1.09,2.22-1.53,3.33-3.26,3.33-5.21v-1.09c0-1.57-.94-3.15-2.83-4.74,1.89-1.48,2.83-3.19,2.83-5.12v-.36c0-.88-.26-1.82-.77-2.83-1.74-2.51-4.06-3.76-6.96-3.76Zm-.16,17.3c-.36,.85-1.02,1.27-1.97,1.27h-15.78v-3.76h15.78c.35,0,.64,.05,.88,.16,.79,.38,1.18,.94,1.18,1.7,0,.06-.03,.27-.09,.63Zm0-9.02c-.36,.83-1.02,1.25-1.97,1.25h-15.78v-3.74h16.21c1.09,.33,1.63,.94,1.63,1.84,0,.08-.03,.29-.09,.66Z"/><path class="cls-1" d="M209.45,67.87h-25.53v-18.46c0-.06-.04-.1-.11-.11h-7.55c-.06,0-.1,.04-.11,.11v24.1c0,.08,.04,.11,.11,.11h33.19c.08,0,.11-.04,.11-.11v-5.56c0-.06-.04-.09-.11-.09Z"/><path class="cls-1" d="M386.11,59.1v-9.68c0-.06-.04-.1-.11-.11h-7.55c-.06,0-.1,.04-.11,.11v24.1c0,.08,.04,.11,.11,.11h7.55c.08,0,.11-.04,.11-.11v-7.5l6.21-3.97c6.17,7.62,9.3,11.47,9.41,11.54h9.95v-.07l-12.79-15.78v-.05c7.88-5.03,12.14-7.81,12.79-8.32v-.07h-10.45l-15.12,9.8Z"/><path class="cls-1" d="M318.51,49.3c-1.33,0-2.73,.4-4.19,1.2-2.25,1.5-3.38,3.23-3.38,5.21v11.34c0,1.15,.38,2.27,1.13,3.36,1.75,2.15,3.95,3.22,6.6,3.22h25.58c.06,0,.11-.05,.11-.11v-5.56c0-.06-.04-.09-.11-.09l-24.13-.05c-.78,0-1.4-.63-1.4-1.41v-9.92c0-.78,.63-1.41,1.41-1.41h24.12c.06,0,.11-.05,.11-.11v-5.56c0-.06-.04-.1-.11-.11h-25.73Z"/><path class="cls-1" d="M269.11,49.3h-18.07c-.74,0-1.72,.2-2.92,.61-3.05,1.44-4.58,3.45-4.58,6.03v11.11c0,1.16,.38,2.28,1.13,3.36,1.75,2.15,3.95,3.22,6.6,3.22h17.84c1.3,0,2.53-.27,3.7-.82,2.77-1.42,4.15-3.36,4.15-5.83v-11c0-1.24-.4-2.42-1.2-3.54-1.71-2.1-3.92-3.15-6.64-3.15Zm.06,16.66c0,1.04-.85,1.89-1.89,1.89h-14.07c-1.04,0-1.89-.85-1.89-1.89v-9c0-1.04,.85-1.89,1.89-1.89h14.07c1.04,0,1.89,.85,1.89,1.89v9Z"/><path class="cls-1" d="M411.53,26h-46.63v7.9c0,.11,.05,.16,.16,.16h46.47c.11,0,.16-.05,.16-.16v-7.78c0-.08-.05-.13-.16-.13Z"/><path class="cls-1" d="M109.41,34.06h10.57c.11,0,.16-.05,.16-.16V.16c0-.08-.05-.14-.16-.16h-10.57c-.09,0-.14,.05-.16,.16V33.9c0,.11,.05,.16,.16,.16Z"/><path class="cls-1" d="M173.85,0h-10.6c-.09,0-.14,.05-.16,.16V23.01h-.06C152.86,13.62,144.54,5.95,138.04,0h-10.67c-.09,0-.14,.05-.16,.16V33.9c0,.11,.05,.16,.16,.16h10.57c.11,0,.16-.05,.16-.16V11.14l24.92,22.92h10.82c.11,0,.16-.05,.16-.16V.16c0-.08-.05-.14-.16-.16Z"/><path class="cls-1" d="M295.29,0h-10.6c-.09,0-.14,.05-.16,.16V23.01h-.06C274.31,13.62,265.98,5.95,259.49,0h-10.67c-.09,0-.14,.05-.16,.16V33.9c0,.11,.05,.16,.16,.16h10.57c.11,0,.16-.05,.16-.16V11.14l24.92,22.92h10.82c.11,0,.16-.05,.16-.16V.16c0-.08-.05-.14-.16-.16Z"/><path class="cls-1" d="M313.42,33.9V.16c0-.08-.05-.14-.16-.16h-10.57c-.09,0-.14,.05-.16,.16V33.9c0,.11,.05,.16,.16,.16h10.57c.11,0,.16-.05,.16-.16Z"/><path class="cls-1" d="M411.53,0h-90.88c-.09,0-.14,.05-.16,.16V7.94c0,.11,.05,.16,.16,.16h17.81v25.81c0,.11,.05,.16,.16,.16h10.6c.11,0,.16-.05,.16-.16V8.1h62.15c.11,0,.16-.05,.16-.16V.16c0-.08-.05-.14-.16-.16Z"/><path class="cls-1" d="M221.17,13.33h-40.09v20.57c0,.11,.05,.16,.16,.16h10.57c.11,0,.16-.05,.16-.16v-13.17h29.2c.11,0,.16-.05,.16-.16v-7.08c0-.08-.05-.14-.16-.16Z"/><path class="cls-1" d="M241.43,0h-60.19c-.09,0-.14,.05-.16,.16v7.94h49.62v25.81c0,.11,.05,.16,.16,.16h10.57c.11,0,.16-.05,.16-.16V.16c0-.08-.05-.14-.16-.16Z"/><path class="cls-1" d="M73.31,20.85h-20.78V.89c0-.35-.29-.64-.64-.64H.64C.29,.25,0,.54,0,.89V52.14c0,.35,.29,.64,.64,.64H21.42v19.96c0,.35,.29,.64,.64,.64h51.25c.35,0,.64-.29,.64-.64V21.49c0-.35-.29-.64-.64-.64ZM9.61,43.81c-.35,0-.64-.29-.64-.64V9.86c0-.35,.29-.64,.64-.64H43.56v11.63H22.07c-.35,0-.64,.29-.64,.64v22.32H9.61Zm33.95-13.98v13.35c0,.35-.29,.64-.64,.64h-12.52v-13.34c0-.35,.29-.64,.64-.64h12.52Zm21.42,33.94c0,.35-.29,.64-.64,.64H31.04c-.35,0-.64-.29-.64-.64v-10.99h21.5c.35,0,.64-.29,.64-.64V29.82h12.45V63.76Z"/></g></g></svg>
